<svg id="Layer_1" xmlns="http://www.w3.org/2000/svg" viewBox="125.1 366.3 586.4 59.7"><style>.st0{fill:#003a78}.st1{fill:#008bce}</style><path class="st0" d="M289.6 367.5h47v14.2h-30.7v9.9h27.8v13.6h-27.8v21h-16.3zm84.3 59.9c-4.6 0-8.8-.7-12.7-2.2-3.9-1.5-7.3-3.6-10.1-6.3-2.9-2.7-5.1-5.9-6.7-9.6s-2.4-7.8-2.4-12.3v-.2c0-4.3.8-8.2 2.4-12 1.6-3.7 3.8-7 6.6-9.7 2.8-2.8 6.1-4.9 10-6.5 3.9-1.6 8.1-2.3 12.6-2.3 5.2 0 9.7.8 13.5 2.3s7.2 3.6 10.4 6.3l-9.6 11.5c-2.1-1.8-4.3-3.2-6.5-4.1-2.2-1-4.8-1.4-7.7-1.4-2.1 0-4.1.4-5.9 1.3-1.8.8-3.4 2-4.7 3.4-1.3 1.5-2.4 3.2-3.2 5.1-.8 2-1.2 4.1-1.2 6.3v.2c0 2.4.4 4.5 1.2 6.6.8 2 1.9 3.7 3.3 5.2 1.4 1.4 3.1 2.5 5.1 3.4 1.9.8 4.1 1.2 6.4 1.2 3.8 0 7-.8 9.4-2.4v-7.1h-11.6v-12.2h27v26.4c-3.1 2.6-6.8 4.7-11.1 6.5-4.3 1.7-9.1 2.6-14.5 2.6m29.9-59.9H422l13.4 37.2 13.3-37.2h17.9l-23.9 58.7h-15.1z"/><path class="st1" d="M208.9 386.6l20.3-19h45.6l-38.6 35.9z"/><path class="st0" d="M125.1 367.6H172l51.1 58.7h-47z"/><path class="st1" d="M496 367.5h47v13.8h-31v8.9h28.1V403H512v9.3h31.5v13.8H496v-58.6zm55.8 0h47v13.8h-31v8.9h28.1V403h-28.1v9.3h31.5v13.8h-47.4l-.1-58.6zm78.8 59.6c-5.2 0-10.2-.8-14.9-2.4s-8.9-4.1-12.5-7.3l9-10.8c5.9 4.7 12.2 7 19 7 2.2 0 3.8-.3 5-1 1.1-.7 1.7-1.7 1.7-3v-.2c0-.6-.1-1.2-.4-1.6-.3-.5-.8-.9-1.5-1.4-.8-.4-1.8-.9-3-1.3-1.3-.4-2.9-.9-4.9-1.3-3.1-.7-6-1.5-8.7-2.4-2.7-.9-5-2-7-3.3-2-1.4-3.5-3.1-4.7-5.1-1.1-2-1.7-4.6-1.7-7.6v-.2c0-2.7.5-5.2 1.5-7.5s2.5-4.3 4.5-5.9c2-1.7 4.4-3 7.2-3.9 2.8-.9 5.9-1.4 9.5-1.4 5 0 9.5.7 13.4 2s7.5 3.3 10.7 5.9l-8.1 11.5c-2.7-1.9-5.4-3.3-8.2-4.3s-5.5-1.5-8.2-1.5c-2 0-3.4.4-4.4 1.1-1 .7-1.5 1.6-1.5 2.7v.1c0 .7.2 1.3.5 1.8s.8 1 1.6 1.4 1.8.8 3.1 1.3c1.3.4 3 .8 5 1.3 3.3.7 6.4 1.6 9.1 2.5 2.7 1 5 2.2 6.9 3.6s3.3 3.1 4.4 5.1c1 2 1.5 4.3 1.5 7.1v.2c0 3-.6 5.7-1.7 8s-2.7 4.3-4.8 6a23.5 23.5 0 0 1-7.4 3.8c-3.2.6-6.4 1-10 1zm31.5-59.6h25.1c3.7 0 7 .5 10 1.4s5.6 2.3 7.7 4c2.1 1.8 3.8 3.9 4.9 6.5 1.1 2.6 1.7 5.5 1.7 8.7v.2c0 3.5-.6 6.5-1.9 9.1-1.3 2.6-3 4.8-5.2 6.6-2.2 1.8-4.9 3.1-8 4s-6.5 1.3-10.1 1.3h-8V426h-16.2v-58.5zm24 29.2c2.9 0 5.2-.7 6.8-2.1 1.6-1.4 2.5-3.2 2.5-5.6v-.2c0-2.5-.8-4.4-2.5-5.8-1.6-1.3-3.9-2-6.9-2h-7.6v15.6h7.7v.1z"/></svg>